<?xml version="1.0" encoding="utf-8"?>
<!-- Generator: Adobe Illustrator 17.1.0, SVG Export Plug-In . SVG Version: 6.00 Build 0)  -->
<!DOCTYPE svg PUBLIC "-//W3C//DTD SVG 1.1//EN" "http://www.w3.org/Graphics/SVG/1.1/DTD/svg11.dtd">
<svg version="1.1" id="Layer_1" xmlns="http://www.w3.org/2000/svg" xmlns:xlink="http://www.w3.org/1999/xlink" x="0px" y="0px"
	 viewBox="0 0 110.9087753 24" enable-background="new 0 0 110.9087753 24" xml:space="preserve">
<g>
	<path fill="#EDD26B" d="M13.470705,0.1510417h0.250205l0.250206,0.015625l0.2032919,0.03125l0.2814817,0.078125l0.7349787,0.34375
		l1.1728382,0.7499999c0,0,0.3596706,0.6718751,0.4065857,0.7343751c0.0469131,0.0625,0.0625496,0.53125,0.0625496,0.53125
		l-0.151516,0.1618977l-0.8649435-0.1306477l-2.1423855-1.3906251L13.470705,0.1510417z"/>
	<polygon fill="#EDD26B" points="1.9612455,5.46875 2.1019862,5.421875 2.023797,6.296875 2.1645377,7.0625 2.5867596,7.984375 
		3.2748251,9.203125 3.1340845,9.4375 2.3991053,8.609375 1.8361427,6.421875 1.8830563,5.796875 	"/>
	<polygon fill="#4D6335" points="1.346156,11.953125 2.6910112,14.03125 0.428736,14.875 0.3349089,13.421875 0.9291473,12.046875 	
		"/>
	<polyline fill="#4D6335" points="1.2679667,15.703125 1.1115882,16.296875 1.5181724,16 2.4095299,12.234375 3.2226982,9.546875 
		3.0663197,9.25 1.1585017,10.421875 	"/>
	<polygon fill="#51777B" points="14.7477951,17.453125 14.6070547,17.40625 10.9634352,21.375 6.9418492,22.8649197 
		12.5584955,22.859375 	"/>
	<polygon fill="#D03E28" points="22.5354462,17.671875 20.2679577,18.90625 14.6383305,17.5 14.9041739,17.0625 
		22.4572563,16.984375 22.8951168,16.765625 	"/>
	<polygon fill="#D03E28" points="16.6556129,2.7343752 16.7807159,3.0156252 20.8465576,4.0625 20.2835941,3.4375002 
		18.1412086,2.1250002 	"/>
	<polygon fill="#51777B" points="7.5836582,23.0513 7.1557646,21.6298294 8.9950666,22.1987 9.4229603,23.6201706 	"/>
	<g>
		<g>
			<path fill="#6E6B60" d="M42.0210037,7.7527366c0.0302773,0.1503954,0.0453415,0.265368,0.0453415,0.3453774
				c0,0.11057-0.0281792,0.1858702-0.0826912,0.2254391c-0.0549202,0.0403376-0.137249,0.0749931-0.2483177,0.105298
				c-0.3702011,0.1000242-0.6713943,0.2983847-0.9020882,0.5940561c-0.230648,0.2950068-0.4561729,0.6980238-0.6760063,1.2092552
				L35.8709335,20.328928c-0.1801376,0-0.3809662-0.030611-0.6015167-0.0905037
				c-0.2204018-0.0606594-0.360878-0.1497803-0.4208183-0.2701283l-4.5259247-9.8715305
				c-0.1302795-0.2802124-0.2530842-0.5109243-0.3685074-0.691061c-0.1150703-0.1804953-0.2359257-0.3308392-0.3611355-0.45047
				c-0.1247501-0.120142-0.2679424-0.2155085-0.4285545-0.2859459c-0.1600494-0.0695152-0.3509903-0.1349363-0.5711842-0.1951351
				c-0.1707039-0.0501661-0.2554893-0.1649847-0.2554893-0.345377c0-0.11057,0.0298653-0.2353191,0.0903187-0.3757839h5.1428051
				c0.0197258,0.080368,0.0370941,0.1455326,0.0524635,0.1951866c0.0148582,0.0505242,0.0219765,0.1006899,0.0219765,0.1501904
				c0,0.1904774-0.0895538,0.3002796-0.270401,0.3306856c-0.2910995,0.0605574-0.5259476,0.1404648-0.7065353,0.2404385
				c-0.18116,0.1000252-0.271122,0.2606068-0.271122,0.4804153c0,0.1109285,0.0401649,0.2758102,0.1208534,0.4961824
				l3.2927742,7.6776924l2.9618683-6.9412766C38.95401,9.9521551,39.043766,9.6062145,39.043766,9.3458128
				c0-0.2303028-0.0876541-0.4132547-0.263073-0.5483446c-0.1752663-0.1358576-0.4636497-0.2580481-0.8644867-0.3686171
				c-0.1607666-0.0397749-0.2408409-0.1602755-0.2408409-0.3606319c0-0.0695157,0.0151138-0.1747618,0.0448799-0.3154826H42.0210037
				z"/>
			<path fill="#6E6B60" d="M48.2424431,20.4638653c-0.9821129,0-1.8366585-0.1706161-2.5638466-0.5113869
				c-0.7265167-0.3401546-1.3352547-0.786171-1.8264122-1.3370247c-0.4914169-0.5503922-0.8573647-1.1767483-1.0974388-1.878355
				c-0.2407379-0.7005329-0.3609276-1.4116602-0.3609276-2.1330767c0-1.0618286,0.1726494-2.0260897,0.5184174-2.8922205
				c0.3460693-0.8660784,0.7920456-1.6050539,1.3384819-2.216259c0.5457191-0.6109495,1.1620903-1.0818949,1.8497238-1.4116592
				c0.6857376-0.3311467,1.3706055-0.4966941,2.0523491-0.4966941c1.3733177,0,2.4263382,0.3711767,3.1577225,1.1119943
				c0.7317505,0.7418928,1.1075325,1.8281908,1.1281281,3.2605305c0,0.2104406-0.0081482,0.4279976-0.0224915,0.6534367
				c-0.015728,0.2256441-0.0428314,0.4532852-0.0828438,0.6842022H44.348568c0,0.3800325,0.022541,0.773221,0.0678825,1.1787462
				c0.0445709,0.4057293,0.1299744,0.8016825,0.2556458,1.1868334c0.1245461,0.3857145,0.3003235,0.7490091,0.5259476,1.0897779
				c0.2258301,0.339901,0.5191345,0.6382351,0.8803673,0.8938255c0.360569,0.2553844,0.7981453,0.458147,1.3152771,0.6089516
				c0.5163651,0.1499348,1.1301231,0.2247753,1.8424988,0.2247753c0.4302979,0,0.9117241-0.0325565,1.4436111-0.097517
				c0.5301476-0.0649605,1.0121384-0.1580734,1.4428978-0.2780628l0.0301704,0.0594826
				c-0.2405815,0.5320663-0.5334244,0.9495182-0.8790359,1.2552757c-0.3465805,0.3056011-0.7025414,0.5359039-1.0679779,0.6911125
				c-0.3666153,0.1549511-0.7242126,0.2533875-1.0754585,0.2930088
				C48.7792015,20.4431839,48.4839516,20.4638653,48.2424431,20.4638653 M50.392952,11.9597139
				c0-0.2503691-0.0328407-0.5503922-0.0971832-0.9012976c-0.0661964-0.3504448-0.1934547-0.6886044-0.3836288-1.0144787
				c-0.1907845-0.3252077-0.4660034-0.6028614-0.8266754-0.834341c-0.3613396-0.2298422-0.8328781-0.3448143-1.4136925-0.3448143
				c-0.3412552,0-0.6766701,0.0472994-1.007885,0.1422567c-0.3310089,0.0956736-0.5815315,0.2025576-0.7516708,0.3233652
				c-0.2197342,0.1503439-0.4160538,0.3456335-0.5860405,0.586071c-0.1713715,0.2408476-0.3158455,0.4935713-0.4361382,0.7584782
				c-0.1208038,0.2656755-0.2139969,0.5285349-0.2783928,0.7892437c-0.0653725,0.2601461-0.1032333,0.4909096-0.1130714,0.6914711
				L50.392952,11.9597139z"/>
			<path fill="#6E6B60" d="M56.5826302,10.0663595c0-0.1596098-0.0130081-0.3146124-0.0379143-0.465827
				c-0.0253029-0.1497297-0.0626564-0.2504711-0.112709-0.3000746c-0.0804863-0.0803671-0.2701912-0.1448669-0.5709801-0.1952372
				c-0.3008842-0.0505247-0.7370186-0.0999737-1.3083572-0.1501398c-0.010807-0.0507288-0.0183907-0.0953665-0.0228996-0.135499
				c-0.0050735-0.0397749-0.0072746-0.080061-0.0072746-0.1203985c0-0.1600189,0.0453911-0.2555389,0.1359177-0.2855358
				c0.8512688-0.2401829,1.5235329-0.4277415,2.0151024-0.5633435c0.4902382-0.1349359,0.8561325-0.2349095,1.0974922-0.3003302
				c0.2398643-0.0651131,0.3903313-0.1027374,0.4510384-0.1124635c0.0595856-0.0099311,0.0950928-0.0152035,0.1052322-0.0152035
				c0.1099434,0,0.1875076,0.0499101,0.2324371,0.1501393c0.0451889,0.1002297,0.0680885,0.2049127,0.0680885,0.3154826v1.5472097
				c0.2104111-0.1897097,0.455658-0.3975401,0.7365608-0.6229792c0.2804947-0.2256956,0.5813789-0.4335775,0.9025002-0.6236954
				c0.3201485-0.1905289,0.651207-0.3482952,0.991951-0.4733009c0.3407936-0.1256194,0.6820488-0.1880198,1.0228424-0.1880198
				c0.6312294,0,1.0897522,0.102994,1.3755226,0.3081622c0.2855682,0.2047076,0.4293213,0.5030923,0.4293213,0.8938241
				c0,0.160326-0.0259705,0.3557682-0.0759659,0.586071c-0.0499077,0.2305079-0.1450958,0.4712019-0.2860336,0.7209568
				c-0.4105721-0.1800346-0.7840538-0.3155851-1.1194191-0.4056787c-0.3368988-0.0900431-0.7240067-0.1353464-1.1655731-0.1353464
				c-0.451046,0-0.9249916,0.0428972-1.4207115,0.1275654c-0.4968987,0.0854359-0.9606972,0.183157-1.390995,0.2935219v7.7974758
				c0,0.3108749,0.0220299,0.5563297,0.067215,0.7362118c0.0445747,0.1807499,0.1447296,0.3262825,0.3009415,0.4361362
				c0.1551247,0.1100578,0.3781395,0.2002029,0.6691856,0.2703323c0.2904854,0.0698223,0.6815872,0.1501408,1.1728516,0.2406425
				c0.1102486,0.0200157,0.180542,0.0700283,0.2107658,0.1495781c0.0294075,0.0807247,0.0446281,0.1657009,0.0446281,0.2561531
				c0,0.049551-0.0099449,0.1245956-0.0302277,0.225029c-0.0098915,0.0298958-0.0145531,0.0603027-0.0145531,0.0899925h-6.5411263
				c-0.0102463-0.040287-0.0151672-0.0774498-0.0151672-0.1129246v-0.0968513c0-0.1710758,0.0246429-0.2958775,0.0755692-0.3758354
				c0.0495415-0.0805206,0.1046677-0.1256714,0.1650162-0.1351414c0.4307594-0.0702324,0.7718582-0.1505985,1.0227928-0.2406425
				c0.2501144-0.0902462,0.4356232-0.2126923,0.5557175-0.368515c0.120491-0.1543369,0.1963158-0.3524914,0.2260284-0.5933399
				c0.0302277-0.2400799,0.0449867-0.5407162,0.0449867-0.9012966v-7.2268648H56.5826302z"/>
			<path fill="#6E6B60" d="M72.4016876,7.8430352c0.2006226,0.089787,0.3602676,0.2249789,0.4809113,0.4057813
				c0.1202927,0.1799831,0.1808014,0.3954916,0.1808014,0.6461172c0,0.1499338-0.0253601,0.3476286-0.0756226,0.5933399
				c-0.0497971,0.2451477-0.180336,0.4882984-0.3910522,0.7288389c-0.3813171-0.3508539-0.8342056-0.6289682-1.360611-0.834341
				c-0.5262527-0.2042475-1.0800705-0.3077011-1.6615524-0.3077011c-0.6618652,0-1.1801224,0.095212-1.556221,0.2858944
				c-0.3760376,0.1899652-0.5639572,0.5405121-0.5639572,1.0512838c0,0.3909864,0.148262,0.7315521,0.4439774,1.0216951
				c0.2951431,0.2907066,0.6687317,0.563241,1.1197205,0.8185749c0.450943,0.2551813,0.9345703,0.5111809,1.4517059,0.7665663
				c0.5160599,0.2555904,0.9998932,0.5409222,1.4504776,0.8562002c0.4514542,0.3156872,0.8249359,0.6837921,1.1210556,1.1047258
				c0.2947311,0.4203186,0.4430008,0.9262266,0.4430008,1.5173149c0,0.5109749-0.0602493,0.9435806-0.180336,1.2993488
				c-0.1198807,0.3558197-0.215683,0.5938015-0.2856674,0.7135334c-0.2407379,0.400713-0.5041275,0.7342148-0.7894821,0.9990711
				c-0.2852097,0.2655201-0.5888138,0.4764214-0.9102936,0.6312199c-0.3204956,0.1549511-0.6589432,0.2657261-1.0144424,0.3312988
				c-0.3562622,0.0647564-0.7190857,0.0975685-1.0895462,0.0975685c-0.2417068,0-0.4920273-0.0152035-0.7523346-0.0456104
				c-0.2612305-0.0294857-0.5188293-0.0772457-0.7752914-0.1428699c-0.2548294-0.0649605-0.501152-0.1424618-0.7360001-0.2325039
				c-0.2356644-0.0902481-0.4487381-0.1956978-0.6397858-0.3154831c-0.3000641-0.190834-0.5086288-0.4061394-0.6235428-0.6461678
				c-0.1150055-0.240591-0.1729584-0.465826-0.1729584-0.6765232c0-0.1902218,0.028183-0.3751183,0.0827408-0.5552044
				c0.0554352-0.1805458,0.1234741-0.3408203,0.2032394-0.4808254c0.1005173-0.1805458,0.2004166-0.3357525,0.3007812-0.4658775
				c0.681488,0.7014542,1.3308487,1.2273769,1.947319,1.5774117c0.6159668,0.3507519,1.270607,0.5259743,1.9622345,0.5259743
				c0.6015091,0,1.090416-0.1404629,1.4661026-0.4209328c0.375885-0.2800579,0.5637512-0.691061,0.5637512-1.2317772
				c0-0.4110546-0.1504135-0.7689724-0.4505844-1.0747814c-0.3009872-0.3056011-0.677536-0.5880671-1.128273-0.8480597
				c-0.4509964-0.2604532-0.9371872-0.5191145-1.458931-0.7740908c-0.5205688-0.2557955-1.0070648-0.5455294-1.457756-0.8715563
				c-0.4518127-0.3249531-0.82724-0.7011976-1.1279144-1.1265326c-0.3008347-0.4257965-0.4508972-0.9389734-0.4508972-1.5402479
				c0-0.5906277,0.1369476-1.1196222,0.4132385-1.5852957c0.275528-0.4656725,0.6339951-0.8561993,1.0751038-1.1716814
				c0.4413605-0.3159943,0.9398422-0.5558691,1.4958649-0.7212634c0.5569382-0.1650867,1.1155701-0.2478094,1.6765594-0.2478094
				C71.2680817,7.4974537,71.8599091,7.6125278,72.4016876,7.8430352"/>
			<path fill="#6E6B60" d="M84.0057526,20.4638653c-0.3411026,0-0.6187286-0.0503712-0.834671-0.1499348
				c-0.215477-0.1005878-0.3835678-0.2408485-0.5037613-0.4216003c-0.1203461-0.1798286-0.2028275-0.3955936-0.2478104-0.6457062
				c-0.0447235-0.2503185-0.0679321-0.5257187-0.0679321-0.8259983c-0.2209091,0.3903217-0.4914703,0.7260761-0.8120728,1.006134
				c-0.2809067,0.2509327-0.6308212,0.4785728-1.0525589,0.683794c-0.4208221,0.2053719-0.9172592,0.3079567-1.4892578,0.3079567
				c-0.5302048,0-1.0069122-0.0675697-1.4277802-0.202507c-0.4207153-0.1358566-0.7821579-0.3284836-1.0827332-0.578598
				c-0.3005295-0.2501125-0.5316391-0.5508003-0.6916351-0.9017582c-0.160408-0.3502388-0.2405853-0.7456284-0.2405853-1.1864243
				c0-0.65098,0.1725998-1.2421188,0.5189819-1.7729044c0.3457108-0.5307865,0.8211975-0.9823313,1.4284439-1.3524332
				c0.6060257-0.3709211,1.3210144-0.6560478,2.1425705-0.8563528c0.8221664-0.2003565,1.7095032-0.3007402,2.661438-0.3007402
				v-2.1181288c0-0.7514143-0.2158356-1.3101501-0.6467972-1.6755934c-0.4307632-0.3654947-1.0367813-0.5483446-1.8190918-0.5483446
				c-0.6713943,0-1.1556854,0.1302776-1.4512405,0.3905268c-0.2960205,0.2606068-0.4439774,0.6306572-0.4439774,1.1121988
				c0,0.0691061,0.0026093,0.1619644,0.0084534,0.2776537c0.0046692,0.1152792,0.0172119,0.2125397,0.0370407,0.2929077
				L77.8255005,11.02847c-0.0497971,0.0101357-0.1058426,0.0145893-0.1654816,0.0145893h-0.1951904
				c-0.0805359,0-0.1981125-0.0097771-0.3535538-0.0297928c-0.1554337-0.0201178-0.313179-0.0628099-0.4740448-0.1283836
				c-0.1595383-0.0644989-0.2978592-0.162425-0.4135361-0.2924976c-0.1150208-0.1304321-0.172554-0.3104658-0.172554-0.5407686
				c0-0.3311462,0.1756287-0.6464243,0.5261459-0.946703c0.3518143-0.3013029,0.7823105-0.5659542,1.2931976-0.7962561
				c0.5113983-0.2305079,1.0580368-0.4157124,1.6387482-0.5561771c0.5817947-0.1399527,1.1030731-0.2103896,1.564064-0.2103896
				c0.6118546,0,1.1254578,0.1032495,1.5417709,0.3080087c0.4154892,0.2053728,0.7517242,0.4757061,1.0075302,0.8109989
				c0.2555847,0.3357019,0.4358215,0.7115374,0.5410995,1.1271982c0.1051331,0.4156094,0.1578979,0.8343925,0.1578979,1.2544556
				v6.4012766c0,0.5400009,0.0831528,0.9131737,0.2485275,1.1190071c0.1646042,0.2047596,0.423172,0.3082638,0.7737045,0.3082638
				c0.1902695,0,0.3961792-0.0202694,0.6167297-0.0607605c0.2210083-0.0396729,0.3860321-0.0900955,0.4957657-0.1495266
				l0.0306473,0.0594311c-0.0500107,0.1704121-0.1359787,0.3558197-0.2560654,0.5563812
				c-0.1202927,0.2001019-0.2810059,0.387661-0.4807587,0.563343c-0.2004166,0.175684-0.4439774,0.322752-0.72995,0.4436111
				C84.734726,20.4035625,84.3963928,20.4638653,84.0057526,20.4638653 M82.3063889,14.7237549
				c-0.1098404-0.00947-0.2275162-0.0167389-0.3531876-0.0220118c-0.124855-0.0046072-0.2585678-0.007678-0.3986893-0.007678
				c-0.3411026,0-0.694397,0.0176086-1.0595245,0.0525713c-0.3662033,0.0352697-0.7170944,0.0852308-1.0533295,0.1503954
				c-0.3360748,0.0653696-0.6384964,0.1503448-0.9096222,0.2553854c-0.2704468,0.104991-0.4812164,0.2331181-0.6317368,0.3835135
				c-0.1396561,0.1294594-0.2552338,0.3075485-0.3455582,0.5327835c-0.0899124,0.2251835-0.1352005,0.4588127-0.1352005,0.6991997
				c0,0.2501144,0.0479507,0.4905014,0.1435547,0.7212124c0.0943146,0.2303028,0.2472458,0.4332695,0.4576492,0.6080837
				c0.2106171,0.1752224,0.4837341,0.3152771,0.8199692,0.4207287c0.3352585,0.1051941,0.7496719,0.1578178,1.2404709,0.1578178
				c0.3807602,0,0.7668915-0.0473003,1.1575928-0.1426144c0.3914108-0.0957775,0.7473602-0.2325039,1.0677185-0.4134598v-3.3959274
				H82.3063889z"/>
			<path fill="#6E6B60" d="M90.3897476,2.6442571c0-0.1598144-0.0134201-0.314817-0.0378494-0.4658265
				c-0.0257797-0.1503954-0.0634842-0.2501643-0.1131821-0.300279c-0.0806351-0.0799583-0.2703476-0.1455324-0.5708771-0.1955448
				c-0.3015442-0.0500124-0.7369156-0.0997176-1.3086624-0.1498324c-0.0101471-0.0505242-0.0175247-0.0954176-0.02285-0.1358575
				c-0.0045013-0.0394673-0.0069122-0.0794977-0.0069122-0.1198353c0-0.1598144,0.0447235-0.2555391,0.1352997-0.285741
				c0.881752-0.2399775,1.5656967-0.4284069,2.0518875-0.5629336c0.4866028-0.1353456,0.8470688-0.2334252,1.0831451-0.2935219
				c0.2354584-0.0598408,0.3753738-0.097926,0.4203033-0.1122079c0.0455933-0.0155105,0.0731583-0.0226771,0.0834045-0.0226771
				c0.1100464,0,0.1878204,0.04991,0.2329025,0.1501395c0.0454941,0.1001783,0.0675201,0.205322,0.0675201,0.3154823v17.2480736
				c0,0.3108749,0.0223389,0.5563297,0.0678864,0.7362118c0.0453415,0.1807499,0.1427307,0.3262825,0.2938156,0.4361362
				c0.1496964,0.1100578,0.3703537,0.2003059,0.6604233,0.2703323c0.2910995,0.0698223,0.6821518,0.1501408,1.1736221,0.2406425
				c0.1097412,0.0200157,0.1806946,0.0700283,0.2102051,0.1496792c0.0301743,0.0806236,0.0452881,0.1655998,0.0452881,0.256052
				c0,0.049551-0.0102463,0.1245956-0.0297623,0.225029c-0.0103531,0.0296898-0.0157318,0.0603027-0.0157318,0.0899925h-6.4955292
				c-0.0106049-0.040287-0.0155258-0.0774498-0.0155258-0.1129246v-0.0968513c0-0.1710758,0.0250015-0.2958775,0.0753632-0.3758354
				c0.0503082-0.0805206,0.1054382-0.1256714,0.1653214-0.1351414c0.4303513-0.0702324,0.7727356-0.1505985,1.0226898-0.2408466
				c0.2502213-0.0901451,0.4362946-0.2124882,0.5566864-0.3683109c0.1197815-0.1543369,0.1951447-0.3524914,0.2252197-0.5933399
				c0.0301743-0.2399769,0.0454941-0.5407162,0.0454941-0.9012966V2.6442571H90.3897476z"/>
			<path fill="#D03E28" d="M21.1810188,4.3051591l-0.0002556-0.0004096l-0.0143929-0.0162783
				c-0.8801155-1.000196-2.3942223-1.4938188-4.2534771-1.4938188c-0.0767956,0-0.1536942,0.0008192-0.2315674,0.0026619
				l-0.0003033-0.0002561l0.0000992,0.0002561c0.317585,0.7542295,0.5368099,1.6397607,0.6547432,2.6207607
				c0.2689152,2.2908945-0.0220814,5.0973716-0.9524994,7.9792514c-0.1542091,0.4814901-0.3206635,0.9477777-0.5020247,1.4039297
				c-0.0285358,0.0697718-0.0537424,0.1384678-0.0841742,0.2062941c-0.338232,0.8328066-0.7147865,1.6185694-1.1215162,2.3477144
				h-0.000102c1.7866077,0.6124859,3.45364,0.92976,4.8325977,0.92976c1.6381378,0,2.8682137-0.4482689,3.4077358-1.3799725
				c0.020237-0.0360889,0.0441151-0.0829792,0.0655251-0.125927L22.980896,16.780302l0.000618-0.0011768
				c1.1978474-2.7591782,1.3162956-5.8908634,0.3225002-8.7366037c-0.4631863-1.332366-1.1701851-2.5976739-2.1227398-3.7369018
				l0.0101452,0.0116205l-0.0068665-0.0080371L21.1810188,4.3051591"/>
			<path fill="#EDD26B" d="M2.3220665,4.8454156L2.3220665,4.8454156L2.3220665,4.8454156 M11.9666138,0.0000513
				c-0.6974192,0-1.3821325,0.060967-2.0475311,0.1751201c-0.3906431,0.0665466-0.777956,0.1503443-1.1526146,0.256307
				C6.1629686,1.1475717,3.9132762,2.717356,2.3405614,4.8200254L2.3220665,4.8453646L2.321913,4.8456717
				C2.2973728,4.8854971,2.2540307,4.9564462,2.2295446,4.9963741C2.0381911,5.3270597,1.9486377,5.704277,1.9488939,6.1163545
				c0.0003586,0.9494672,0.4787616,2.0841899,1.2972926,3.260735l0.0008225,0.001689l0.0000484,0.000103l0,0l0,0
				c0.8804703-0.969636,1.9503961-1.9150085,3.1829858-2.7843127c0.5594516-0.3945189,1.1563025-0.7783909,1.780406-1.1380501
				c0.6384001-0.3678493,1.2819738-0.6988935,1.918581-0.9894977c0.6632471-0.3043737,1.321372-0.5676939,1.9682245-0.7883217
				c1.6309147-0.555511,3.1969213-0.8509781,4.5839186-0.8812313l-0.000206-0.0004096h0.0000553
				c-0.5436249-1.2922336-1.3733759-2.2014143-2.4614372-2.5507331c-0.1796703-0.0592777-0.3635921-0.0997176-0.5499706-0.126797
				l0.0000992,0.0002048l-0.0003071-0.0002048l-0.0016394-0.0005119l-0.0029716-0.0006655
				C13.1099548,0.0402865,12.5429716,0.0000513,11.9666138,0.0000513"/>
			<path fill="#51777B" d="M3.2470574,9.3788815L3.2470574,9.3788815V9.379137L3.246084,9.3793421
				c-1.7312775,1.9076366-2.7512009,3.9048042-2.750586,5.5805511c0,0.0543633,0.0036887,0.1076002,0.0058404,0.1612988
				c0.0017419,0.0417194,0.001537,0.0841045,0.0046109,0.1253633c0.0207489,0.2833357,0.072493,0.5562792,0.1569743,0.8166809
				c0.0248987,0.0693111,0.0508732,0.1380081,0.0771552,0.2064476c1.0634705,2.796854,3.1479404,5.093277,5.7969847,6.4371605
				c0.0613756,0.025238,0.1941175,0.080471,0.3048296,0.122345c0.0368867,0.0138721,0.0713658,0.0263615,0.0999022,0.0357304l0,0
				c0.3167152,0.1014576,0.6428571,0.1512146,0.9759665,0.1512146c1.4726591,0,3.0808773-0.9611397,4.551897-2.5606136h0.0015888
				c0.787075-0.8557892,1.5359306-1.9019032,2.2043009-3.100256c-0.5516129-0.1904259-1.1143436-0.4068031-1.6832733-0.6518497
				l-0.1795673-0.0764256c0,0-1.8029509-0.8508759-2.714263-1.374445c-1.5236864-0.8806171-2.888195-1.8523512-4.0444975-2.8501415
				C4.8890381,11.3959103,3.9357672,10.3669453,3.2470574,9.3788815"/>
			<path fill="#BE3626" d="M13.6696148,0.1195282c0.1863785,0.0270794,0.3703518,0.0675193,0.5499706,0.126797
				c1.0880613,0.3493188,1.9178677,1.2584996,2.4614372,2.5507843l0.0003033,0.0002048
				c0.0779247-0.0018427,0.1547718-0.0026619,0.2315674-0.0026619c1.8592548,0,3.3733616,0.4936228,4.2534771,1.4938188
				l0.0143433,0.0163298l-0.0001049-0.0001535l-0.0018444-0.0021501c-0.0192127-0.022933-0.0396538-0.0452003-0.0589676-0.0680823
				c-0.0775146-0.0915275-0.155386-0.1827474-0.2356663-0.2718174c-1.0230484-1.1347229-2.260397-2.0720069-3.6485786-2.7501173
				c-0.205286-0.1002295-0.4136963-0.1949817-0.6253872-0.2836935C15.6632986,0.5336531,14.6747837,0.2628594,13.6696148,0.1195282"
				/>
			<path fill="#4D6335" d="M2.3220665,4.8454156L2.3218105,4.8458252c-0.015677,0.0255947-0.0388849,0.0632195-0.0600951,0.0979772
				c0.0212102-0.0347576,0.0444181-0.0723825,0.0600951-0.0979772c-0.015677,0.0255947-0.0388849,0.0632195-0.0600951,0.0979772
				c0.0212102-0.0347576,0.0444181-0.0723825,0.0600951-0.0979772c-1.3381244,1.7978349-2.1818616,3.9832783-2.3386822,6.3554611
				c-0.0173676,0.2641907-0.0286386,0.5300188-0.0287411,0.7985601c0.0001537,0.5223913,0.034479,1.0368996,0.0995947,1.5418863
				c0.1125563,0.8730412,0.3186108,1.7171087,0.608788,2.5212479c-0.0966233-0.2985897-0.14806-0.6139183-0.1613803-0.9417372
				c-0.0008709-0.0205784-0.0018956-0.0411062-0.0029202-0.0616331c-0.001537-0.0330687-0.0029202-0.0661879-0.0029202-0.0997171
				c-0.000666-1.6756964,1.0192574-3.6729145,2.750586-5.5805511L3.247009,9.3790855V9.3788815h0.0000484L3.247009,9.3787785
				L3.2461865,9.377141c-0.818531-1.1765966-1.2969851-2.3112683-1.2972926-3.2607865
				C1.948689,5.704277,2.0382423,5.3270597,2.2295446,4.9963741C2.2540307,4.9563437,2.2975266,4.8852415,2.3220665,4.8454156"/>
			<path fill="#592E27" d="M22.9803829,16.7811718c-0.0211582,0.0423355-0.0445194,0.0883541-0.0645523,0.1238804
				c-0.5395222,0.9317036-1.7695465,1.3799725-3.4076843,1.3799725c-1.3789577,0-3.0459385-0.3172741-4.8325462-0.92976
				c-0.6684217,1.1983528-1.4172773,2.2445164-2.2044039,3.100256h-0.0015373
				c-1.4709682,1.5994225-3.0792379,2.5606632-4.551897,2.5606632c-0.3331094,0-0.6592999-0.0498066-0.9759126-0.1512642
				c-0.0285902-0.0093689-0.0630693-0.0218067-0.099956-0.0357819c-0.1107121-0.0418224-0.243454-0.0970058-0.3048296-0.1220875
				c0.7616639,0.3850479,1.5703096,0.692852,2.4146109,0.9112282h0.0027637l0.015933,0.0041466l0.0082998,0.0026608
				l0.0110655,0.0022011l0.0132694,0.0037384l0.0038424,0.0008698C9.9750271,23.8765297,10.9690275,24,11.9642057,24
				c1.9611034,0,3.9265623-0.4774971,5.708457-1.4408894c0.1344357-0.0726376,0.270607-0.1496773,0.4008408-0.2245693
				c0.6839924-0.4050636,1.3347912-0.8852234,1.9457855-1.4380207c0.574049-0.5188084,1.0863686-1.0803089,1.5362854-1.6752872
				c0.0405254-0.053545,0.0796146-0.1078568,0.1191654-0.1619644c0.0230026-0.0315323,0.0467739-0.0627079,0.0694199-0.0944443
				c0.493721-0.6904469,0.9060345-1.4228706,1.2362232-2.1837025 M22.9804344,16.7810707l-0.0000515,0.0000515
				L22.9804344,16.7810707 M22.9813576,16.7791252l-0.0009232,0.0019455l0.0004101-0.0007687L22.9813576,16.7791252"/>
		</g>
		<g opacity="0.6">
			<path fill="#6E6B60" d="M96.4241257,0.8449816c0-0.051211-0.0031967-0.1008216-0.0096054-0.148832
				c-0.0064087-0.0480103-0.0176163-0.0800171-0.033638-0.0960206c-0.0256271-0.0256055-0.0864868-0.04641-0.1825867-0.0624134
				s-0.2354431-0.0320069-0.4180374-0.0480103c-0.0031967-0.0160034-0.0056-0.0304065-0.0072021-0.0432093
				s-0.0024033-0.0256055-0.0024033-0.0384082c0-0.0544117,0.0144119-0.0848182,0.0432434-0.0912196
				C96.095787,0.2400517,96.314415,0.1800388,96.46978,0.1368295c0.1553574-0.0432093,0.2698746-0.074416,0.3435516-0.0936201
				s0.1177216-0.0312067,0.1321411-0.0360077c0.0144119-0.004801,0.0232239-0.0072015,0.0264206-0.0072015
				c0.0352402,0,0.0600662,0.0160034,0.0744781,0.0480103c0.0144196,0.0320069,0.0216217,0.0656141,0.0216217,0.1008216v2.8614142
				c0.0512543-0.0672143,0.1177216-0.1368294,0.1994095-0.2088447c0.0816879-0.0720155,0.1761856-0.1376297,0.283493-0.1968424
				c0.1073151-0.0592127,0.2290421-0.1080232,0.365181-0.1464314c0.1361389-0.038408,0.2842941-0.0576122,0.444458-0.0576122
				c0.2306366,0,0.4428635,0.0480101,0.6366577,0.1440308c0.1938019,0.0960207,0.3603745,0.228049,0.4997177,0.396085
				c0.1393509,0.168036,0.2474594,0.3664787,0.3243408,0.5953279s0.1153183,0.4745016,0.1153183,0.736958
				c0,0.3040652-0.0608597,0.5881262-0.1825867,0.8521829s-0.2818985,0.4945064-0.4804993,0.6913486
				c-0.1986084,0.1968422-0.4268417,0.3520756-0.6847076,0.4657001c-0.2578735,0.1136241-0.521347,0.1704364-0.7904205,0.1704364
				c-0.0448456,0-0.1241302-0.0016003-0.2378464-0.0048008c-0.1137161-0.003201-0.2386475-0.0088019-0.374794-0.0168037
				c-0.1361389-0.0080018-0.2730789-0.018404-0.41082-0.0312066c-0.1377487-0.0128031-0.2546692-0.0304065-0.350769-0.0528116
				V0.8449816z M97.9857483,3.0294504c-0.1537628,0-0.3083191,0.0120027-0.4636841,0.0360079
				c-0.1553574,0.0240049-0.3099213,0.056812-0.4636765,0.0984211v2.5973573
				c0.0416412,0.0192041,0.0969009,0.0392084,0.1657715,0.0600133c0.0688705,0.0208044,0.1441498,0.0400085,0.2258301,0.0576119
				c0.0816879,0.0176039,0.1665726,0.0320072,0.2546692,0.0432096c0.088089,0.0112023,0.1737747,0.0168037,0.2570648,0.0168037
				c0.0928955,0,0.1881943-0.0048013,0.2858963-0.0144033s0.1930008-0.0272059,0.2858963-0.0528111
				c0.0928955-0.0256057,0.1809845-0.0600128,0.2642746-0.1032224c0.0832825-0.0432091,0.1569595-0.0968208,0.2210312-0.1608343
				c0.0928955-0.0992212,0.167366-0.2440524,0.2234268-0.4344935c0.0560608-0.1904407,0.0840912-0.4008861,0.0840912-0.6313353
				c0-0.1824393-0.0256271-0.364078-0.0768814-0.5449171c-0.0512543-0.1808388-0.1305389-0.3432736-0.2378464-0.4873047
				c-0.1073151-0.1440308-0.2458572-0.2600558-0.4156342-0.3480747S98.2227936,3.0294504,97.9857483,3.0294504z"/>
			<path fill="#6E6B60" d="M102.574501,6.5342026c-0.3139267,0-0.5870056-0.0544114-0.8192444-0.1632347
				c-0.2322464-0.1088233-0.4268417-0.2512541-0.5838089-0.4272919c-0.1569595-0.1760378-0.27388-0.3760805-0.3507614-0.6001287
				s-0.1153183-0.4512968-0.1153183-0.6817465c0-0.339273,0.0552521-0.6473389,0.1657715-0.9241984
				c0.1105118-0.2768595,0.2530594-0.5129101,0.4276428-0.7081521c0.1745758-0.1952419,0.371582-0.345674,0.591011-0.4512968
				s0.4380569-0.1584339,0.6558762-0.1584339c0.438858,0,0.7752075,0.1184254,1.0090485,0.3552761
				c0.2338409,0.236851,0.3539658,0.5841255,0.3603745,1.0418236c0,0.0672145-0.0024033,0.1368294-0.0072098,0.2088449
				c-0.0048065,0.0720153-0.0136108,0.1448312-0.0264282,0.2184467h-2.551445c0,0.1216264,0.0072098,0.2472534,0.0216293,0.3768811
				c0.0144119,0.1296277,0.0416412,0.2560549,0.0816803,0.3792815c0.0400391,0.1232262,0.0960999,0.2392511,0.1681747,0.3480744
				s0.1657715,0.2040439,0.2810898,0.2856612c0.1153183,0.0816178,0.2554703,0.1464314,0.4204407,0.1944418
				s0.3611679,0.0720158,0.5886078,0.0720158c0.1377411,0,0.2915039-0.0104022,0.4612808-0.0312071
				c0.1697693-0.0208044,0.3235321-0.0504107,0.4612732-0.088819l0.009613,0.0192041
				c-0.0768814,0.1696367-0.170578,0.3032651-0.2810898,0.4008861c-0.1105194,0.097621-0.2242355,0.171237-0.341156,0.2208476
				s-0.2314377,0.0808172-0.3435593,0.0936198C102.7458801,6.5278015,102.6513824,6.5342026,102.574501,6.5342026z
				 M103.2616119,3.8168194c0-0.0800171-0.0104065-0.1760378-0.0312271-0.2880619s-0.0616684-0.2200472-0.1225281-0.3240695
				c-0.0608673-0.1040223-0.1489563-0.1928413-0.2642746-0.2664571s-0.2658768-0.1104238-0.4516678-0.1104238
				c-0.1089172,0-0.2162247,0.0152032-0.3219376,0.0456097c-0.1057053,0.0304067-0.185791,0.0648141-0.240242,0.1032221
				c-0.0704803,0.0480103-0.1329422,0.1104238-0.1874008,0.1872404c-0.054451,0.0768163-0.1008987,0.1576338-0.1393433,0.2424519
				c-0.0384369,0.0848184-0.0680695,0.1688364-0.0888901,0.2520542s-0.0328369,0.1568336-0.0360413,0.2208474L103.2616119,3.8168194
				z"/>
			<path fill="#6E6B60" d="M106.3704376,5.943676c0.0384369,0,0.0840836-0.0024004,0.13694-0.0072017
				c0.0528564-0.0048008,0.106514-0.0112023,0.160965-0.0192041c0.0544586-0.0080013,0.1081161-0.018404,0.1609726-0.0312066
				c0.0528488-0.0128026,0.1000977-0.0272059,0.1417465-0.0432091l0.0096054,0.0144029
				c-0.1153183,0.2304497-0.2538605,0.4000859-0.4156265,0.5089092s-0.3579712,0.1632352-0.5886154,0.1632352
				c-0.297905,0-0.5141296-0.0712152-0.6486664-0.2136459c-0.1345444-0.1424303-0.2018127-0.3528757-0.2018127-0.6313353V2.8518124
				h-0.6342545l0.0768814-0.3792815h0.557373v-0.960206l0.648674-0.2448525v1.2050586h1.1051407v0.3792815h-1.1051407v2.4581275
				c0,0.1120243,0.008812,0.208045,0.0264282,0.2880621s0.048851,0.1456313,0.0936966,0.1968422
				s0.1057053,0.088819,0.1825867,0.112824C106.154213,5.9316735,106.251915,5.943676,106.3704376,5.943676z"/>
			<path fill="#6E6B60" d="M110.1615677,6.5342026c-0.1089172,0-0.1978073-0.0160031-0.2666779-0.0480099
				c-0.0688705-0.0320072-0.1225281-0.0768166-0.160965-0.134429c-0.0384445-0.0576124-0.0648727-0.1264272-0.0792847-0.2064443
				s-0.0216217-0.168036-0.0216217-0.2640567c-0.0704727,0.1248264-0.1569595,0.2320495-0.2594681,0.3216691
				c-0.0896912,0.0800171-0.2018127,0.1528325-0.3363495,0.2184467s-0.2931061,0.0984211-0.4756927,0.0984211
				c-0.1697769,0-0.3219376-0.0216045-0.4564743-0.0648141c-0.1345367-0.0432091-0.249855-0.1048222-0.3459549-0.1848397
				c-0.0960999-0.0800171-0.1697769-0.1760378-0.2210312-0.2880616s-0.0768814-0.238451-0.0768814-0.3792815
				c0-0.2080445,0.0552597-0.3968849,0.1657715-0.5665216c0.1105118-0.1696362,0.2626724-0.3136673,0.4564743-0.4320927
				s0.4220352-0.2096448,0.6847076-0.2736588c0.2626724-0.0640135,0.5461655-0.0960207,0.8504868-0.0960207V3.5575638
				c0-0.2400515-0.0688782-0.4184897-0.2066193-0.5353148s-0.331543-0.1752377-0.581398-0.1752377
				c-0.2146225,0-0.3691864,0.0416088-0.4636841,0.1248267s-0.1417465,0.2016435-0.1417465,0.3552763
				c0,0.0224049,0.0008011,0.0520113,0.0024033,0.088819c0.0016022,0.036808,0.0056076,0.0680146,0.0120087,0.0936201
				l-0.0528488,0.0096021c-0.0160217,0.0032008-0.033638,0.004801-0.0528564,0.004801s-0.0400391,0-0.0624695,0
				c-0.0256195,0-0.0632629-0.0032005-0.112915-0.0096021c-0.0496521-0.0064013-0.1001053-0.0200043-0.1513519-0.0408087
				c-0.0512543-0.0208044-0.0952988-0.0520113-0.1321411-0.0936201c-0.0368347-0.041609-0.0552597-0.0992212-0.0552597-0.172837
				c0-0.1056228,0.0560608-0.2064445,0.1681747-0.302465c0.1121216-0.0960207,0.2498627-0.1808388,0.4132309-0.2544546
				s0.3379517-0.1328287,0.5237427-0.1776383s0.3523636-0.0672143,0.4997177-0.0672143
				c0.1954041,0,0.3595734,0.0328069,0.4925079,0.0984211c0.1329422,0.065614,0.2402496,0.1520326,0.3219376,0.2592556
				c0.0816803,0.107223,0.1393433,0.2272487,0.1729813,0.3600771c0.0336304,0.1328287,0.0504456,0.2664573,0.0504456,0.4008861
				v2.0452392c0,0.1728368,0.0264282,0.2920628,0.0792847,0.3576765c0.0528564,0.0656142,0.1353378,0.0984211,0.2474594,0.0984211
				c0.0608597,0,0.1265259-0.0064011,0.1969986-0.0192041c0.0704803-0.0128026,0.1233292-0.0288057,0.1585693-0.0480099
				l0.0096054,0.0192041c-0.0160141,0.0544114-0.0432434,0.1136241-0.0816803,0.1776381
				c-0.0384445,0.0640135-0.0896912,0.1240263-0.1537628,0.1800385c-0.064064,0.0560122-0.1417465,0.1032224-0.2330399,0.1416306
				C110.3946075,6.5149984,110.2864914,6.5342026,110.1615677,6.5342026z M109.6186066,4.7002091
				c-0.0352402-0.0032005-0.072876-0.0056014-0.1129227-0.0072017c-0.0400391-0.0016003-0.0824814-0.0024004-0.127327-0.0024004
				c-0.1089172,0-0.2218323,0.0056014-0.3387527,0.0168037s-0.2290421,0.0272055-0.3363495,0.0480103
				c-0.1073151,0.0208044-0.2042084,0.0480099-0.2907028,0.0816174c-0.0864868,0.033607-0.1537552,0.0744162-0.2018051,0.122426
				c-0.0448456,0.0416093-0.0816879,0.0984216-0.1105194,0.1704369s-0.0432434,0.1464314-0.0432434,0.223248
				c0,0.0800171,0.015213,0.1568336,0.0456467,0.2304492c0.0304337,0.073616,0.0792847,0.1384296,0.146553,0.1944418
				s0.1545639,0.1008215,0.2618713,0.134429c0.1073151,0.033607,0.2394485,0.0504107,0.3964081,0.0504107
				c0.121727,0,0.2450562-0.0152035,0.3699875-0.04561s0.2386475-0.0744157,0.341156-0.1320281V4.7002091z"/>
		</g>
	</g>
</g>
</svg>
